PathFileType	4	(X/Y/Z)	OpenSim_Sub09_CSBaseline_Magnet.trc
DataRate	CameraRate	NumFrames	NumMarkers	Units	OrigDataRate	OrigDataStartFrame	OrigNumFrames
100	100	20	8	m	100	5111	5840
Frame#	Time	torso_imu_offset_imu	pelvis_imu_offset_imu	tibia_r_imu_offset_imu	femur_r_imu_offset_imu	tibia_l_imu_offset_imu	femur_l_imu_offset_imu	toes_r_imu_offset_imu	toes_l_imu_offset_imu
				X1	Y1	Z1	X2	Y2	Z2	X3	Y3	Z3	X4	Y4	Z4	X5	Y5	Z5	X6	Y6	Z6	X7	Y7	Z7	X8		Y8	Z8	

5111	51.10000000	-0.92495160	-0.18146535	0.00592022	-0.69091303	0.21498879	-0.58685090	-0.04187258	-0.84856847	-0.04271815	-0.77498274	-0.35174482	-0.03708683	-0.62457945	0.46489668	0.20417497	-0.69422382	-0.01999221	0.27760800	-0.65145196	-0.47371912	0.18363960	-0.70166998	-0.13625051	-0.39461318
5112	51.11000000	-0.92258941	-0.18562172	0.00412727	-0.69593126	0.21966231	-0.58567000	-0.04246927	-0.84586610	-0.04895990	-0.77797507	-0.34054725	-0.04021830	-0.62445464	0.45903158	0.21822145	-0.68407359	-0.02075345	0.28716711	-0.65580326	-0.47063283	0.16885839	-0.70417038	-0.13641951	-0.39207824
5113	51.12000000	-0.92632838	-0.18252065	0.00533455	-0.69405790	0.22165275	-0.58645196	-0.04240294	-0.84483152	-0.07010438	-0.78981068	-0.32903492	-0.04083414	-0.62264291	0.46307928	0.23401706	-0.68367218	-0.01315474	0.28787187	-0.65945191	-0.47132866	0.15214980	-0.69697065	-0.13432660	-0.39520154
5114	51.13000000	-0.92551269	-0.18271875	0.00762655	-0.68903392	0.22767197	-0.57535711	-0.05109037	-0.84466700	-0.07778152	-0.79391690	-0.31426877	-0.04306112	-0.62106444	0.46766014	0.23889839	-0.68617554	-0.00778999	0.28606432	-0.65814065	-0.46403603	0.14059274	-0.70175291	-0.13534065	-0.39111504
5115	51.14000000	-0.92303400	-0.18804862	0.01091334	-0.68882340	0.23050966	-0.57914626	-0.06139905	-0.84845126	-0.09516635	-0.80136099	-0.30389198	-0.04604840	-0.61406063	0.46247950	0.23654972	-0.67604223	-0.00234762	0.29028043	-0.65512190	-0.45895931	0.12903281	-0.70358770	-0.14021493	-0.39176135
5116	51.15000000	-0.92063142	-0.18380079	0.00456977	-0.68702979	0.23548709	-0.58491541	-0.07658234	-0.84805750	-0.11316739	-0.80735580	-0.28933506	-0.04889181	-0.61529546	0.47139471	0.23747184	-0.67398109	0.00848446	0.29142284	-0.66219782	-0.45365150	0.11235407	-0.70271849	-0.13779272	-0.39577457
5117	51.16000000	-0.92053667	-0.19106474	0.00895879	-0.68711827	0.24478700	-0.59094240	-0.09458352	-0.84132304	-0.12133496	-0.80953372	-0.28087702	-0.04993204	-0.61286372	0.47730269	0.23989031	-0.67519281	0.01495180	0.28883874	-0.66916565	-0.44450756	0.09969245	-0.70771172	-0.13132331	-0.38687004
5118	51.17000000	-0.91765132	-0.18853724	0.01470148	-0.68391873	0.24480094	-0.58312716	-0.10767625	-0.84094089	-0.12485326	-0.81345548	-0.26535526	-0.04848028	-0.60748568	0.48335637	0.23831554	-0.67165956	0.02821535	0.28882738	-0.67608932	-0.42995776	0.07884592	-0.70507565	-0.14325101	-0.39141271
5119	51.18000000	-0.92584095	-0.19197143	0.01551351	-0.67739614	0.25607320	-0.58307608	-0.13605135	-0.83529546	-0.12257223	-0.82140559	-0.25404816	-0.04775598	-0.60903192	0.48684278	0.23503506	-0.66908767	0.02984423	0.28619040	-0.67833036	-0.42202818	0.05146441	-0.71090930	-0.14369892	-0.39066175
5120	51.19000000	-0.92173766	-0.18816891	0.01290594	-0.67706362	0.26020316	-0.58886268	-0.15443241	-0.83511479	-0.12723395	-0.83132456	-0.24040090	-0.05288363	-0.60997632	0.48637210	0.23861715	-0.66697078	0.03797615	0.29179180	-0.68761215	-0.40128997	0.02705714	-0.71002117	-0.14511459	-0.39429242
5121	51.20000000	-0.92141697	-0.19510989	0.01661728	-0.67281895	0.26550710	-0.58708776	-0.18162009	-0.82475678	-0.11982720	-0.83102440	-0.22889371	-0.05394629	-0.60650754	0.49079750	0.23991388	-0.66711256	0.05019814	0.29199089	-0.69809758	-0.38573946	0.00799234	-0.71337169	-0.14144865	-0.39327590
5122	51.21000000	-0.92349533	-0.19493913	0.01933055	-0.67662614	0.27013468	-0.58935210	-0.20807877	-0.81495272	-0.12127001	-0.83194105	-0.22008396	-0.05597769	-0.59933087	0.48908994	0.23653107	-0.66617911	0.05522124	0.28401505	-0.70003298	-0.36743458	-0.01595537	-0.71461157	-0.14290115	-0.39324425
5123	51.22000000	-0.91438904	-0.19594976	0.02317998	-0.67210738	0.27705790	-0.58741909	-0.23649721	-0.80887593	-0.11411219	-0.83631339	-0.21437408	-0.05865984	-0.59818669	0.49288498	0.24457345	-0.65994335	0.06275359	0.28913810	-0.71253658	-0.35667440	-0.04465803	-0.71222676	-0.13938448	-0.38719664
5124	51.23000000	-0.92079224	-0.19673372	0.02658774	-0.66969845	0.28861258	-0.59173245	-0.26657237	-0.80146308	-0.11165518	-0.83949872	-0.20238844	-0.06106924	-0.59831107	0.49122349	0.24419088	-0.65749396	0.07389920	0.28882762	-0.71095994	-0.33793627	-0.07609825	-0.71388411	-0.14018758	-0.38553374
5125	51.24000000	-0.92100282	-0.19629580	0.02264250	-0.66177053	0.28830685	-0.59210628	-0.29406618	-0.78898658	-0.10291450	-0.83809497	-0.19638269	-0.06432453	-0.59902796	0.49657072	0.24525006	-0.65322842	0.07962697	0.28650859	-0.71595617	-0.31862327	-0.10694920	-0.71451381	-0.14249553	-0.38776446
5126	51.25000000	-0.91986780	-0.19828103	0.02327494	-0.66019574	0.29058074	-0.59735059	-0.32487158	-0.78068846	-0.10978098	-0.83743291	-0.19339722	-0.06170576	-0.59345929	0.49809644	0.24512856	-0.65479646	0.08273784	0.27968501	-0.71743104	-0.30055274	-0.14510342	-0.71199999	-0.14559040	-0.38876703
5127	51.26000000	-0.92053956	-0.19816815	0.02669409	-0.65903984	0.29751640	-0.58896962	-0.35785519	-0.76334023	-0.11090385	-0.84136726	-0.18312773	-0.07057157	-0.58731322	0.49893365	0.25122519	-0.65204939	0.09548511	0.28039829	-0.72139835	-0.28021588	-0.17098411	-0.71509103	-0.13958880	-0.38287875
5128	51.27000000	-0.91772017	-0.20219696	0.02226465	-0.65857809	0.29854348	-0.59568588	-0.39871189	-0.74873071	-0.10991812	-0.84444359	-0.17839147	-0.06821207	-0.59174370	0.50580036	0.25054518	-0.64925737	0.09988408	0.28219369	-0.72132666	-0.26091565	-0.21090500	-0.72131633	-0.14042645	-0.37925244
5129	51.28000000	-0.92021408	-0.20284091	0.02797843	-0.65675933	0.29829890	-0.59589827	-0.42620364	-0.72479942	-0.11267785	-0.84297161	-0.17173653	-0.07066403	-0.58876135	0.50616655	0.24706322	-0.64725212	0.10137657	0.28978372	-0.71797239	-0.24581152	-0.24260246	-0.71317626	-0.14022844	-0.38047568
5130	51.29000000	-0.91398118	-0.20369024	0.02635067	-0.65667847	0.29942577	-0.59693033	-0.46039907	-0.70741159	-0.10163557	-0.84215429	-0.17449176	-0.07576500	-0.58595276	0.51353266	0.25085318	-0.64704255	0.10640402	0.28373929	-0.70910822	-0.22896673	-0.27542292	-0.71494452	-0.14835616	-0.38763029
